<?xml version="1.0" standalone="no"?>
<!DOCTYPE svg PUBLIC "-//W3C//DTD SVG 20010904//EN"
 "http://www.w3.org/TR/2001/REC-SVG-20010904/DTD/svg10.dtd">
<svg version="1.0" xmlns="http://www.w3.org/2000/svg"
 width="225.000000pt" height="225.000000pt" viewBox="0 0 225.000000 225.000000"
 preserveAspectRatio="xMidYMid meet">

<g transform="translate(0.000000,225.000000) scale(0.100000,-0.100000)"
fill="#000000" stroke="none">
<path d="M1390 2136 c0 -3 9 -10 20 -16 11 -6 20 -8 20 -6 0 3 -9 10 -20 16
-11 6 -20 8 -20 6z"/>
<path d="M1880 1664 c5 -21 7 -42 4 -46 -3 -4 0 -8 6 -8 6 0 8 -14 4 -40 -4
-25 -2 -45 6 -55 6 -8 9 -19 5 -24 -3 -6 -2 -18 3 -28 8 -14 11 -11 16 14 5
19 15 34 29 38 34 12 57 13 51 4 -3 -5 4 -10 15 -11 12 -1 33 -3 49 -5 83 -11
112 -6 112 17 0 10 -158 38 -222 39 -27 1 -28 3 -28 49 0 27 2 51 5 53 4 5
171 -12 271 -27 35 -5 44 -3 44 9 0 14 -109 33 -312 53 l-66 6 8 -38z"/>
<path d="M1175 1530 c3 -5 8 -10 11 -10 2 0 4 5 4 10 0 6 -5 10 -11 10 -5 0
-7 -4 -4 -10z"/>
<path d="M2215 1498 c-2 -7 -7 -53 -10 -101 -5 -69 -10 -87 -21 -83 -7 3 -16
1 -19 -4 -3 -5 4 -11 15 -15 11 -3 20 -13 20 -21 0 -8 5 -14 12 -14 6 0 9 -2
6 -5 -2 -3 -60 6 -128 20 -138 28 -184 31 -178 13 3 -7 14 -14 26 -16 12 -2
22 -8 22 -14 0 -5 6 -8 14 -5 19 7 46 -24 46 -52 0 -12 4 -20 9 -17 5 4 11 0
14 -6 2 -7 7 -10 11 -7 4 4 0 14 -9 22 -22 23 -20 40 4 27 16 -8 22 -6 30 7 8
14 10 4 8 -40 -1 -43 -5 -56 -15 -52 -8 3 -22 5 -32 5 -10 0 -21 8 -24 18 -3
9 -3 -7 0 -35 5 -49 -5 -70 -21 -43 -3 5 -12 7 -19 4 -8 -3 -17 0 -21 5 -10
18 -25 2 -25 -27 0 -15 -11 -46 -25 -70 l-24 -43 27 -10 c15 -6 38 -11 51 -12
21 -2 25 3 26 33 1 19 3 43 4 53 1 13 10 17 46 17 33 0 45 4 45 15 0 8 4 15 9
15 10 0 6 -74 -4 -90 -8 -13 20 -52 30 -42 5 4 5 1 1 -5 -4 -7 -15 -13 -24
-14 -14 0 -13 -2 3 -9 18 -8 18 -9 2 -9 -25 -1 -16 -25 11 -29 15 -2 22 2 22
13 0 14 5 13 33 -6 17 -13 34 -27 35 -31 6 -13 30 -9 35 5 4 7 6 6 6 -5 1 -9
-5 -19 -11 -21 -8 -3 -6 -6 5 -6 14 -1 17 8 17 48 l0 48 -51 22 c-29 11 -58
21 -65 21 -7 0 -16 5 -20 12 -5 7 -1 9 12 5 10 -3 43 -12 72 -20 l52 -15 0 39
c0 32 -3 39 -20 39 -24 0 -70 21 -70 32 0 4 -7 8 -15 8 -12 0 -14 9 -9 43 13
89 24 119 42 112 9 -3 29 -9 45 -12 l27 -5 0 140 c0 102 -3 142 -12 146 -10 5
-10 7 0 12 6 3 12 10 12 15 0 14 -30 11 -35 -3z m-241 -434 c-7 -3 -10 -13 -8
-22 2 -9 0 -30 -5 -47 -9 -28 -9 -28 -10 16 -1 47 4 60 23 58 7 0 7 -2 0 -5z
m-34 -100 c0 -8 -7 -14 -15 -14 -17 0 -18 2 -9 24 7 18 24 12 24 -10z"/>
<path d="M1155 1490 c-3 -5 -5 -10 -3 -11 36 -8 48 -7 48 6 0 17 -35 21 -45 5z"/>
<path d="M1972 1488 c-7 -7 -12 -22 -12 -34 0 -17 7 -23 34 -26 33 -4 34 -3
38 34 3 35 2 38 -22 38 -14 0 -31 -5 -38 -12z m25 -24 c-3 -3 -12 -4 -19 -1
-8 3 -5 6 6 6 11 1 17 -2 13 -5z"/>
<path d="M1070 1475 c0 -8 7 -15 15 -15 8 0 15 7 15 15 0 8 -7 15 -15 15 -8 0
-15 -7 -15 -15z"/>
<path d="M2057 1476 c-6 -15 12 -26 43 -26 10 0 20 -6 23 -12 2 -7 8 -9 13 -5
5 5 0 15 -11 24 -11 8 -19 19 -17 24 4 15 -45 10 -51 -5z"/>
<path d="M231 1454 c0 -11 3 -14 6 -6 3 7 2 16 -1 19 -3 4 -6 -2 -5 -13z"/>
<path d="M2060 1436 c0 -9 5 -16 10 -16 6 0 10 4 10 9 0 6 -4 13 -10 16 -5 3
-10 -1 -10 -9z"/>
<path d="M103 1433 c-7 -2 -13 -19 -13 -37 0 -30 2 -33 26 -28 21 4 25 9 22
35 -3 31 -13 39 -35 30z"/>
<path d="M266 1404 c-4 -15 -2 -32 3 -37 8 -8 11 0 11 26 0 44 -5 47 -14 11z"/>
<path d="M0 1370 c0 -27 4 -50 9 -50 12 0 17 35 12 73 -6 46 -21 30 -21 -23z"/>
<path d="M370 1390 c0 -25 4 -30 25 -30 21 0 25 5 25 30 0 25 -4 30 -25 30
-21 0 -25 -5 -25 -30z"/>
<path d="M232 1380 c0 -19 2 -27 5 -17 2 9 2 25 0 35 -3 9 -5 1 -5 -18z"/>
<path d="M180 1381 c0 -6 5 -13 10 -16 6 -3 10 1 10 9 0 9 -4 16 -10 16 -5 0
-10 -4 -10 -9z"/>
<path d="M870 1350 c-18 -34 -41 -256 -36 -349 4 -72 2 -83 -8 -68 -12 15 -32
17 -192 15 l-179 -2 170 -3 c99 -2 174 -8 180 -14 7 -7 -46 -10 -170 -9 -229
2 -213 3 -190 -14 30 -21 12 -40 -62 -64 -80 -25 -103 -28 -85 -10 15 15 16
58 2 58 -5 0 -10 -5 -10 -10 0 -6 -15 -19 -32 -30 -36 -22 -98 -26 -129 -10
-16 9 -19 7 -19 -8 0 -23 16 -38 45 -44 12 -2 -15 -15 -67 -33 -69 -23 -88
-34 -88 -49 0 -19 7 -19 91 0 21 5 27 2 32 -16 4 -15 11 -21 21 -17 20 8 20 3
0 -17 -12 -12 -13 -23 -6 -44 10 -31 25 -32 30 -3 3 19 42 36 72 32 78 -10 80
-34 5 -57 -59 -19 -64 -28 -40 -74 19 -36 23 -36 103 -8 65 23 71 31 47 62
-31 41 -20 61 45 82 l60 19 -38 42 c-38 42 -39 42 -90 36 -42 -5 -52 -3 -52 9
0 10 24 23 70 37 130 41 130 41 130 23 0 -9 11 -60 24 -112 22 -87 22 -97 9
-124 -12 -23 -13 -34 -4 -48 6 -10 11 -25 11 -33 0 -8 8 -15 19 -15 10 0 21
-9 24 -19 4 -16 18 -20 78 -26 41 -4 96 -5 124 -3 48 3 50 4 56 38 3 19 12 46
20 60 7 14 19 41 24 60 8 24 16 34 28 32 10 -2 17 4 17 13 0 20 49 20 55 0 16
-51 17 -51 28 -25 6 14 12 26 13 28 0 1 24 5 51 7 69 7 78 -15 23 -53 -22 -15
-39 -29 -40 -32 0 -3 29 -20 65 -39 36 -18 65 -37 65 -41 0 -5 -29 -28 -65
-51 -36 -23 -65 -43 -65 -45 0 -6 147 -94 157 -94 13 0 127 87 131 100 2 5
-21 21 -50 36 -29 15 -63 34 -76 42 l-23 15 28 19 c71 48 90 52 145 34 62 -20
75 -20 94 -1 9 8 21 15 27 15 8 0 7 -4 -1 -12 -18 -18 -14 -41 12 -60 35 -25
58 -17 73 28 l13 39 -5 -38 c-5 -47 16 -50 42 -7 13 23 23 30 38 26 11 -3 26
-1 34 3 33 20 40 2 40 -101 0 -82 4 -105 21 -132 23 -38 26 -53 8 -38 -10 8
-13 2 -13 -24 0 -20 5 -34 12 -34 6 0 14 -4 18 -9 8 -14 -22 -6 -75 18 -59 27
-76 26 -96 -4 -22 -34 -12 -59 21 -51 33 8 105 -36 105 -66 0 -4 -33 -25 -72
-48 l-73 -40 46 0 c26 0 66 9 90 19 45 21 64 19 55 -5 -5 -13 19 -14 167 -11
94 2 187 8 205 12 21 5 32 4 32 -4 0 -6 11 -11 25 -11 15 0 25 6 25 14 0 8 6
16 13 18 9 4 13 73 15 289 l3 284 -123 29 c-84 20 -145 41 -194 68 -39 21 -74
38 -77 38 -4 0 -7 -10 -7 -21 0 -18 -4 -21 -29 -16 -23 5 -35 0 -60 -23 -17
-17 -33 -41 -37 -55 -3 -14 -10 -25 -14 -25 -11 0 -20 27 -15 42 12 33 36 189
38 241 2 66 -8 76 -18 17 -8 -44 -12 -49 -49 -52 -17 -2 -26 -8 -26 -20 0 -23
-16 -31 -32 -15 -7 8 -31 17 -53 21 l-39 8 24 19 c20 15 22 19 8 19 -10 0 -23
9 -30 19 -10 16 -15 18 -27 8 -12 -10 -13 -8 -6 13 6 20 5 23 -5 13 -10 -9
-16 -8 -28 4 -15 14 -31 14 -89 -3 -19 -5 -22 -1 -31 48 l-10 53 -1 -41 c-1
-33 -5 -43 -21 -47 -11 -3 -17 -1 -14 4 3 5 -5 7 -18 5 -14 -2 -22 -10 -22
-20 3 -24 -14 -19 -19 7 -4 20 -4 20 -6 1 -1 -17 -6 -20 -31 -16 -17 2 -33 9
-37 15 -4 6 0 8 10 4 10 -3 17 -2 17 3 0 6 -7 10 -15 10 -8 0 -13 6 -11 13 1
6 1 9 -1 5 -8 -14 -23 -8 -23 8 0 14 -2 15 -17 3 -15 -13 -16 -12 -11 9 7 25
5 26 -23 12 -14 -8 -19 -21 -19 -56 0 -40 2 -45 18 -39 24 11 35 10 130 -10
77 -17 82 -19 82 -44 0 -14 -9 -45 -20 -68 -17 -38 -23 -43 -52 -43 -38 0
-147 22 -195 40 -22 8 -33 19 -33 31 0 10 4 19 8 19 5 0 18 18 31 40 12 22 17
40 12 40 -6 0 -11 5 -11 11 0 5 5 7 12 3 7 -4 8 -3 4 5 -4 6 -16 9 -27 6 -24
-8 -47 4 -29 15 16 10 7 49 -19 77 -12 12 -23 43 -27 72 l-7 51 39 0 39 0 -35
18 c-19 9 -35 22 -35 27 -1 6 -8 26 -17 45 -10 19 -18 53 -20 74 -3 45 -21 57
-38 26z m30 -143 c-1 -78 -6 -166 -13 -194 l-12 -53 -19 43 c-17 39 -18 51 -7
157 14 132 29 202 42 194 5 -3 9 -69 9 -147z m27 -74 c-3 -10 -5 -4 -5 12 0
17 2 24 5 18 2 -7 2 -21 0 -30z m25 -255 c0 -29 1 -61 0 -70 -1 -10 3 -18 8
-18 17 0 12 -77 -5 -84 -15 -6 -20 5 -8 18 12 11 10 46 -2 56 -9 8 -11 4 -7
-15 2 -14 0 -25 -4 -26 -5 0 -18 -2 -29 -4 -11 -1 -40 -5 -65 -9 -43 -5 -44
-5 -20 8 l25 14 -28 11 c-16 6 -45 12 -65 13 -37 1 -37 1 8 8 44 7 44 7 10 10
-20 1 -27 4 -17 7 10 3 30 2 45 -2 20 -5 23 -8 11 -16 -12 -7 -11 -9 4 -9 10
0 17 8 17 20 0 23 10 26 28 8 19 -19 27 0 24 62 -3 54 -1 59 20 63 48 9 48 9
50 -45z m486 7 c-5 -42 5 -71 14 -43 4 10 11 9 29 -3 13 -9 54 -26 92 -38 70
-24 77 -30 52 -51 -8 -7 -24 -38 -36 -70 -12 -33 -27 -61 -35 -64 -22 -8 -204
54 -235 81 -14 12 -17 11 -22 -9 -4 -12 -9 -19 -12 -16 -11 11 7 57 30 81 19
18 25 36 27 83 3 56 5 60 38 76 56 28 63 25 58 -27z m-840 18 c-10 -2 -28 -2
-40 0 -13 2 -5 4 17 4 22 1 32 -1 23 -4z m175 0 c-23 -2 -64 -2 -90 0 -26 2
-7 3 42 3 50 0 71 -1 48 -3z m720 -28 c-3 -9 -8 -14 -10 -11 -3 3 -2 9 2 15 9
16 15 13 8 -4z m18 -18 c-10 -9 -11 -8 -5 6 3 10 9 15 12 12 3 -3 0 -11 -7
-18z m-771 -32 c0 -8 -4 -15 -10 -15 -5 0 -7 7 -4 15 4 8 8 15 10 15 2 0 4 -7
4 -15z m-30 -5 c0 -5 -10 -10 -22 -9 -22 0 -22 1 -3 9 11 5 21 9 23 9 1 1 2
-3 2 -9z m99 -6 c2 -2 -7 -4 -22 -4 -14 0 -29 5 -32 10 -6 10 42 4 54 -6z
m-582 -46 c-3 -8 -6 -5 -6 6 -1 11 2 17 5 13 3 -3 4 -12 1 -19z m1425 -38
c-12 -12 -22 -18 -22 -14 0 12 33 45 38 39 3 -3 -4 -14 -16 -25z m-504 -32
c-6 -18 -28 -21 -28 -4 0 9 7 16 16 16 9 0 14 -5 12 -12z m182 -53 c-7 -8 -16
-15 -21 -15 -5 0 -9 7 -9 15 0 9 9 15 21 15 18 0 19 -2 9 -15z m-513 -55 c-1
-22 -5 -40 -9 -40 -10 0 -10 8 -2 49 9 42 13 39 11 -9z m-57 -64 c0 -3 -4 -8
-10 -11 -5 -3 -10 -1 -10 4 0 6 5 11 10 11 6 0 10 -2 10 -4z m-43 -22 c-3 -3
-12 -4 -19 -1 -8 3 -5 6 6 6 11 1 17 -2 13 -5z m-80 -20 c-3 -3 -12 -4 -19 -1
-8 3 -5 6 6 6 11 1 17 -2 13 -5z m76 -1 c-7 -2 -19 -2 -25 0 -7 3 -2 5 12 5
14 0 19 -2 13 -5z"/>
<path d="M266 1341 c-4 -7 -5 -15 -2 -18 9 -9 19 4 14 18 -4 11 -6 11 -12 0z"/>
<path d="M235 1278 c4 -35 10 -66 14 -71 4 -4 4 21 0 55 -4 34 -5 66 -3 70 3
5 0 8 -6 8 -9 0 -10 -18 -5 -62z"/>
<path d="M2048 1323 c7 -3 16 -2 19 1 4 3 -2 6 -13 5 -11 0 -14 -3 -6 -6z"/>
<path d="M2088 1313 c7 -3 16 -2 19 1 4 3 -2 6 -13 5 -11 0 -14 -3 -6 -6z"/>
<path d="M270 1268 c0 -51 8 -80 20 -73 10 6 0 97 -11 110 -5 5 -9 -10 -9 -37z"/>
<path d="M101 1290 c-1 -3 -4 -28 -5 -56 -3 -64 -12 -80 -33 -62 -9 7 -22 26
-29 43 -7 16 -13 23 -14 15 0 -27 40 -82 57 -78 20 4 35 57 30 106 -2 21 -5
35 -6 32z"/>
<path d="M1977 1223 c-4 -3 -6 -27 -6 -52 l2 -46 7 50 c8 53 7 59 -3 48z"/>
<path d="M7 1193 c-2 -4 -1 -17 3 -28 7 -19 8 -19 15 -2 8 18 -9 46 -18 30z"/>
<path d="M1068 1143 c7 -3 16 -2 19 1 4 3 -2 6 -13 5 -11 0 -14 -3 -6 -6z"/>
<path d="M2190 1086 c0 -8 14 -19 30 -25 28 -9 30 -8 30 15 0 20 -5 24 -30 24
-19 0 -30 -5 -30 -14z"/>
<path d="M400 961 c0 -5 7 -11 14 -14 10 -4 13 -1 9 9 -6 15 -23 19 -23 5z"/>
<path d="M1730 960 c0 -5 7 -7 15 -4 8 4 15 8 15 10 0 2 -7 4 -15 4 -8 0 -15
-4 -15 -10z"/>
<path d="M1621 824 c0 -11 3 -14 6 -6 3 7 2 16 -1 19 -3 4 -6 -2 -5 -13z"/>
<path d="M1790 786 c0 -17 27 -46 41 -46 6 0 1 14 -11 30 -24 33 -30 37 -30
16z"/>
<path d="M0 144 l0 -141 131 -2 131 -2 -33 63 c-48 91 -43 88 -95 72 -52 -15
-64 -12 -64 17 0 11 -7 22 -15 25 -8 4 -15 12 -15 20 0 8 -9 31 -20 51 l-20
38 0 -141z"/>
</g>
</svg>
